<svg width="1800" height="502" viewBox="0 0 1800 502" xmlns="http://www.w3.org/2000/svg"><title>gdg-logo + Yangon</title><g fill="#757575" fill-rule="evenodd"><path d="M264.2 317.1L66.7 1H12.2C1.3 1-2.9 8.6 2.8 17.8l132.6 216.4.7 1.1 89.8 143.8 38.3-62zM294.7 267.8c5.7-9.2 5.7-24.3 0-33.6l-134-216.5C155 8.5 141.4.9 130.6.9h-55l193 308.9 26.1-42zM71.9 501h58.8c10.8 0 24.4-7.5 30.1-16.8l53.5-86.5c.2-.3.6-1 1.5-2.4l5.6-9.1-38.9-62.2L71.9 501zM135.4 267.8L2.8 484.3c-5.7 9.3-1.4 16.8 9.4 16.8h50.7L178 316.9 139.4 255c-.5 4.8-1.8 9.3-4 12.8z"/><g><path d="M469 242.7h77.1V339c-20.9 7.2-44 10.8-69.1 10.8-27.5 0-48.8-8-63.9-24-15-16-22.6-38.7-22.6-68.3 0-28.8 8.2-51.3 24.7-67.4 16.5-16.1 39.5-24.1 69.2-24.1 11.2 0 21.9 1.1 31.8 3.2 10 2.1 18.7 4.8 26.1 8.1L527 215.2c-12.9-6.4-27-9.5-42.4-9.5-14.1 0-25 4.6-32.7 13.8-7.7 9.2-11.6 22.3-11.6 39.3 0 16.7 3.5 29.4 10.5 38.2 7 8.8 17 13.1 30.1 13.1 7.2 0 13.8-.7 19.8-2.1v-28H469v-37.3zM719.4 254.2c0 29.8-8.2 52.8-24.6 68.9-16.4 16.1-39.5 24.2-69.2 24.2h-57.8V168.6h61.8c28.7 0 50.8 7.3 66.4 22 15.6 14.7 23.4 35.9 23.4 63.6zm-50.1 1.7c0-16.4-3.2-28.5-9.7-36.4-6.5-7.9-16.3-11.9-29.5-11.9H616v100.1h10.8c14.7 0 25.4-4.3 32.3-12.8 6.8-8.5 10.2-21.5 10.2-39zM808.5 242.7h77.1V339c-20.9 7.2-44 10.8-69.1 10.8-27.5 0-48.8-8-63.9-24-15-16-22.6-38.7-22.6-68.3 0-28.8 8.2-51.3 24.7-67.4 16.5-16.1 39.5-24.1 69.2-24.1 11.2 0 21.9 1.1 31.8 3.2 10 2.1 18.7 4.8 26.1 8.1l-15.3 37.9c-12.9-6.4-27-9.5-42.4-9.5-14.1 0-25 4.6-32.7 13.8-7.7 9.2-11.6 22.3-11.6 39.3 0 16.7 3.5 29.4 10.5 38.2 7 8.8 17 13.1 30.1 13.1 7.2 0 13.8-.7 19.8-2.1v-28h-31.9v-37.3h.2z"/></g><text font-family="Roboto" font-size="250" font-weight="420"><tspan x="962" y="345">Yangon</tspan></text></g></svg>