<svg width="613" height="201" viewBox="0 0 613 201" xmlns="http://www.w3.org/2000/svg"><title>logo-white + Yangon</title><g fill="#FFF" fill-rule="evenodd"><path d="M200.1 160.4h-32v-5.8l12.2-12.3c3.6-3.7 6-6.3 7.2-7.8 1.2-1.5 2-3 2.6-4.3.5-1.4.8-2.8.8-4.4 0-2.1-.6-3.8-1.9-5-1.3-1.2-3.1-1.8-5.3-1.8-1.8 0-3.6.3-5.3 1-1.7.7-3.6 1.9-5.9 3.6l-4.1-5c2.6-2.2 5.2-3.8 7.7-4.7 2.5-.9 5.1-1.4 7.9-1.4 4.4 0 7.9 1.1 10.6 3.4 2.7 2.3 4 5.4 4 9.3 0 2.1-.4 4.2-1.1 6.1-.8 1.9-1.9 3.9-3.5 5.9-1.6 2-4.2 4.8-7.9 8.3l-8.2 8v.3h22.4l-.2 6.6zM237.9 136.8c0 8.2-1.3 14.3-4 18.3s-6.7 6-12.1 6c-5.3 0-9.2-2.1-12-6.2-2.7-4.1-4.1-10.2-4.1-18.1 0-8.3 1.3-14.5 4-18.4 2.6-4 6.7-5.9 12.1-5.9 5.3 0 9.3 2.1 12 6.2 2.7 4.1 4.1 10.1 4.1 18.1zm-24.4 0c0 6.4.7 11 2 13.8 1.3 2.8 3.4 4.1 6.4 4.1 2.9 0 5-1.4 6.4-4.2 1.3-2.8 2-7.4 2-13.7 0-6.3-.7-10.9-2-13.8-1.3-2.8-3.5-4.3-6.4-4.3-2.9 0-5 1.4-6.4 4.2-1.4 2.9-2 7.4-2 13.9zM265.9 160.4h-7.6v-30.5c0-3.6.1-6.5.3-8.7-.5.5-1.1 1.1-1.8 1.7-.7.6-3.1 2.6-7.3 5.9l-3.8-4.8 13.9-10.9h6.3v47.3zM297.5 130.8c4.8 0 8.5 1.3 11.3 3.8 2.8 2.5 4.2 6 4.2 10.3 0 5-1.6 9-4.7 11.8-3.2 2.8-7.6 4.3-13.5 4.3-5.3 0-9.4-.9-12.5-2.6v-6.9c1.7 1 3.8 1.8 6 2.3 2.3.5 4.4.8 6.3.8 3.4 0 6-.8 7.8-2.3 1.8-1.5 2.7-3.8 2.7-6.7 0-5.6-3.6-8.5-10.8-8.5-1 0-2.3.1-3.7.3-1.5.2-2.8.4-3.9.7l-3.4-2 1.8-23.1h24.6v6.8h-17.9l-1.1 11.7c.8-.1 1.7-.3 2.8-.5 1.1-.1 2.4-.2 4-.2z"/><g><path d="M386.2 60.7c0 8.9-2.4 15.8-7.3 20.6-4.9 4.8-11.7 7.2-20.6 7.2h-17.2V35h18.4c8.5 0 15.1 2.2 19.7 6.6 4.7 4.5 7 10.8 7 19.1zm-14.9.5c0-4.9-1-8.5-2.9-10.9-1.9-2.4-4.8-3.5-8.8-3.5h-4.2v29.9h3.2c4.4 0 7.6-1.3 9.6-3.8 2.1-2.6 3.1-6.5 3.1-11.7zM410.3 89.2c-6.9 0-12.2-1.8-16-5.5-3.8-3.7-5.7-8.9-5.7-15.7 0-7 1.8-12.4 5.3-16.1 3.5-3.7 8.5-5.6 15-5.6 6.2 0 11 1.6 14.4 4.9 3.4 3.3 5.1 7.9 5.1 14.1v6.4H403c.1 2.3.9 4.1 2.5 5.4 1.6 1.3 3.7 2 6.5 2 2.5 0 4.8-.2 6.9-.7 2.1-.5 4.4-1.3 6.8-2.4v10.3c-2.2 1.2-4.5 1.9-6.9 2.4-2.4.4-5.2.5-8.5.5zm-.8-33c-1.7 0-3.1.5-4.2 1.6s-1.8 2.7-2 5h12.2c-.1-2-.6-3.6-1.7-4.8-1.1-1.2-2.5-1.8-4.3-1.8zM442.7 88.6L427 47.2h14.8l7 24.5c0 .1.1.3.2.6s.1.6.2 1 .1.8.2 1.3.1.9.1 1.3h.2c0-1.3.2-2.6.7-4.1l7.3-24.6h14.8l-15.7 41.4h-14.1zM487.8 88.6h-14.1V35.2h31.4v11.6h-17.3V57h15.9v11.6h-15.9v20zM528.3 89.2c-6.8 0-12.1-1.8-16-5.5-3.8-3.7-5.7-8.9-5.7-15.7 0-7 1.8-12.4 5.3-16.1 3.5-3.7 8.5-5.6 15-5.6 6.2 0 11 1.6 14.4 4.9 3.4 3.3 5.1 7.9 5.1 14.1v6.4H521c.1 2.3.9 4.1 2.5 5.4 1.6 1.3 3.7 2 6.5 2 2.5 0 4.8-.2 6.9-.7 2.1-.5 4.3-1.3 6.8-2.4v10.3c-2.2 1.2-4.5 1.9-6.9 2.4-2.4.4-5.2.5-8.5.5zm-.8-33c-1.7 0-3.1.5-4.2 1.6s-1.8 2.7-2 5h12.2c-.1-2-.6-3.6-1.7-4.8-1.1-1.2-2.5-1.8-4.3-1.8zM581.7 75.8c0 4.4-1.5 7.8-4.5 10.1s-7.3 3.4-12.9 3.4c-3 0-5.7-.2-7.9-.5-2.3-.3-4.5-.9-6.9-1.8V75.6c2.2 1 4.6 1.8 7.2 2.4 2.6.6 5 .9 7 .9 3.1 0 4.6-.7 4.6-2.1 0-.7-.4-1.4-1.3-2-.9-.6-3.4-1.7-7.5-3.3-3.8-1.6-6.4-3.3-7.9-5.3s-2.3-4.5-2.3-7.5c0-3.8 1.5-6.8 4.4-9 2.9-2.2 7.1-3.2 12.5-3.2 2.7 0 5.3.3 7.6.9 2.4.6 4.8 1.5 7.4 2.6l-3.8 9.2c-1.9-.8-3.9-1.6-6-2.2-2.1-.6-3.8-.9-5.1-.9-2.3 0-3.5.6-3.5 1.7 0 .7.4 1.3 1.2 1.8.8.5 3.2 1.5 7 3.1 2.9 1.2 5 2.4 6.4 3.5 1.4 1.1 2.5 2.5 3.1 4 .8 1.6 1.2 3.5 1.2 5.6zM605.2 77.9c1.9 0 4.2-.5 6.9-1.4v10.4c-1.9.8-3.7 1.4-5.5 1.8-1.7.4-3.8.5-6.1.5-4.8 0-8.2-1.2-10.3-3.5-2.1-2.4-3.2-6-3.2-10.8V57.8h-5V52l6.3-4.5 3.7-8.7h9.3v8.3h10.1v10.7h-10.1v16.1c.1 2.8 1.4 4 3.9 4z"/></g><g><path d="M185.1 58.6h23.1v28.8c-6.3 2.1-13.2 3.2-20.7 3.2-8.2 0-14.6-2.4-19.1-7.2-4.5-4.8-6.7-11.6-6.7-20.4 0-8.6 2.5-15.3 7.4-20.1 4.9-4.8 11.8-7.2 20.7-7.2 3.4 0 6.5.3 9.5 1 3 .6 5.6 1.4 7.8 2.4l-4.6 11.3c-3.8-1.9-8.1-2.8-12.7-2.8-4.2 0-7.5 1.4-9.8 4.1-2.3 2.7-3.5 6.7-3.5 11.8 0 5 1 8.8 3.1 11.4 2.1 2.6 5.1 3.9 9 3.9 2.1 0 4.1-.2 5.9-.6v-8.4H185l.1-11.2zM259.9 61.9c0 8.9-2.5 15.8-7.4 20.6-4.9 4.8-11.8 7.2-20.7 7.2h-17.3V36.2H233c8.6 0 15.2 2.2 19.9 6.6 4.7 4.5 7 10.9 7 19.1zm-15 .5c0-4.9-1-8.5-2.9-10.9-1.9-2.4-4.9-3.6-8.8-3.6H229v29.9h3.2c4.4 0 7.6-1.3 9.7-3.8 2-2.3 3-6.2 3-11.6zM286.5 58.6h23.1v28.8c-6.3 2.1-13.1 3.2-20.7 3.2-8.2 0-14.6-2.4-19.1-7.2-4.5-4.8-6.7-11.6-6.7-20.4 0-8.6 2.5-15.3 7.4-20.1 4.9-4.8 11.8-7.2 20.7-7.2 3.4 0 6.5.3 9.5 1 3 .6 5.6 1.4 7.8 2.4l-4.6 11.3c-3.9-1.9-8.1-2.8-12.7-2.8-4.2 0-7.5 1.4-9.8 4.1-2.3 2.7-3.5 6.7-3.5 11.8 0 5 1 8.8 3.1 11.4 2.1 2.6 5.1 3.9 9 3.9 2.1 0 4.1-.2 5.9-.6v-8.4h-9.5l.1-11.2z"/></g><g><path d="M105.8 127.1L26.8.7H5c-4.4 0-6 3-3.8 6.7l53 86.5.3.4 35.9 57.5 15.4-24.7zM118 107.4c2.3-3.7 2.3-9.7 0-13.4L64.4 7.4C62.1 3.7 56.7.7 52.4.7h-22l77.2 123.5 10.4-16.8zM73.1 129.9l-44.2 70.8h23.5c4.3 0 9.8-3 12-6.7l21.4-34.6c.1-.1.2-.4.6-1l2.2-3.6-15.5-24.9zM54.3 107.4l-53 86.5c-2.3 3.7-.6 6.7 3.8 6.7h20.3l46-73.6L56 102.2c-.3 1.9-.9 3.7-1.7 5.2z"/></g><text font-family="Roboto" font-size="67" font-weight="bold"><tspan x="341" y="161">Yangon</tspan></text></g></svg>