<svg width="595" height="201" viewBox="0 0 595 201" xmlns="http://www.w3.org/2000/svg"><title>logo + Yangon</title><g fill="none" fill-rule="evenodd"><path d="M27.073 200.405h22.645c5.352 0 12.006-3.76 14.77-8.376l19.072-31.727c2.255-4.65 2.173-11.427-.397-15.712l-11.26-18.633-44.83 74.448z" fill="#F6C25B"/><path d="M51.413 108.78L1.063 192.95c-1.943 4.148.08 7.453 5.07 7.453h20.94l44.83-74.448-20.49-33.916c2.762 4.597 2.762 12.132 0 16.74" fill="#0A985C"/><path d="M6.134.405c-5.38 0-7.502 3.78-4.747 8.366l81.776 135.822c2.57 4.285 2.646 11.06.397 15.705l19.876-33.078L27.086.405H6.135z" fill="#5586C5"/><path d="M27.087.405l76.35 126.813 11.072-18.432c2.767-4.613 2.767-12.148 0-16.744L64.49 8.772C61.722 4.184 55.07.404 49.718.404h-22.63z" fill="#D9423E"/><g fill="#4E4E4E"><path d="M178.453 176.756h-32.047V171l12.19-12.256c3.602-3.684 5.987-6.298 7.163-7.84 1.174-1.54 2.033-2.993 2.57-4.35.54-1.36.81-2.81.81-4.366 0-2.132-.643-3.814-1.925-5.044-1.286-1.226-3.056-1.842-5.322-1.842-1.81 0-3.56.335-5.253 1-1.694.67-3.65 1.877-5.87 3.623l-4.11-5.013c2.632-2.218 5.185-3.793 7.666-4.72 2.478-.925 5.12-1.39 7.922-1.39 4.398 0 7.926 1.148 10.578 3.445 2.653 2.293 3.978 5.382 3.978 9.264 0 2.133-.386 4.16-1.148 6.08-.765 1.917-1.942 3.896-3.527 5.932-1.583 2.037-4.22 4.79-7.906 8.263l-8.215 7.955v.32h22.442v6.696zM216.258 153.12c0 8.21-1.32 14.314-3.96 18.302-2.643 3.988-6.68 5.98-12.113 5.98-5.26 0-9.248-2.057-11.965-6.175-2.717-4.118-4.074-10.153-4.074-18.108 0-8.346 1.32-14.493 3.96-18.45 2.643-3.954 6.67-5.932 12.08-5.932 5.283 0 9.28 2.07 11.998 6.21 2.717 4.137 4.074 10.196 4.074 18.17zm-24.415 0c0 6.444.663 11.047 1.99 13.804 1.325 2.76 3.444 4.142 6.352 4.142 2.91 0 5.04-1.4 6.387-4.207 1.347-2.803 2.02-7.382 2.02-13.74 0-6.34-.673-10.926-2.02-13.762-1.347-2.833-3.476-4.25-6.387-4.25-2.908 0-5.027 1.39-6.353 4.17-1.326 2.783-1.99 7.396-1.99 13.84zM244.33 176.756h-7.6V146.23c0-3.643.085-6.53.26-8.666-.496.52-1.107 1.09-1.828 1.715-.722.624-3.14 2.606-7.26 5.948l-3.816-4.818 13.906-10.928h6.34v47.274h-.002zM275.86 147.235c4.766 0 8.538 1.26 11.32 3.783 2.782 2.522 4.174 5.96 4.174 10.313 0 5.045-1.58 8.985-4.74 11.82-3.157 2.838-7.645 4.252-13.468 4.252-5.28 0-9.432-.85-12.45-2.552v-6.89c1.746.99 3.752 1.757 6.014 2.297 2.266.54 4.368.81 6.306.81 3.428 0 6.038-.765 7.826-2.296 1.79-1.53 2.686-3.772 2.686-6.728 0-5.645-3.602-8.47-10.803-8.47-1.01 0-2.262.102-3.75.307-1.49.204-2.79.436-3.912.696l-3.397-2.006 1.81-23.087h24.58v6.756h-17.883l-1.07 11.706c.756-.13 1.68-.28 2.766-.454 1.086-.172 2.42-.257 3.99-.257z"/><g><path d="M368.434 60.446c0 8.922-2.443 15.8-7.314 20.62-4.874 4.818-11.73 7.24-20.557 7.24h-17.17V34.86h18.367c8.513 0 15.088 2.197 19.72 6.585 4.634 4.376 6.954 10.72 6.954 19.003zm-14.884.515c0-4.896-.96-8.528-2.884-10.897-1.914-2.358-4.84-3.543-8.763-3.543h-4.173v29.935h3.2c4.35 0 7.552-1.275 9.585-3.814 2.017-2.55 3.035-6.44 3.035-11.68zM392.5 89.038c-6.855 0-12.17-1.836-15.956-5.502-3.783-3.67-5.68-8.9-5.68-15.668 0-6.99 1.75-12.367 5.257-16.102 3.51-3.738 8.52-5.61 15.024-5.61 6.19 0 10.974 1.625 14.354 4.88 3.377 3.252 5.058 7.934 5.058 14.06v6.36H385.2c.093 2.313.937 4.125 2.516 5.44 1.59 1.322 3.745 1.972 6.48 1.972 2.49 0 4.784-.24 6.878-.708 2.085-.475 4.362-1.285 6.798-2.43V86c-2.218 1.15-4.518 1.94-6.89 2.38-2.374.44-5.204.658-8.48.658zm-.844-33.158c-1.667 0-3.06.533-4.186 1.592-1.134 1.056-1.784 2.72-1.982 4.986h12.197c-.05-1.996-.61-3.588-1.69-4.788-1.078-1.2-2.527-1.79-4.34-1.79zM424.893 88.306L409.22 46.882h14.805l6.965 24.495c.02.126.072.328.15.625.07.29.143.64.212 1.036.078.406.143.834.198 1.288.065.45.096.868.096 1.254h.246c0-1.258.222-2.638.656-4.125l7.293-24.573h14.766l-15.68 41.424h-14.033zM470.002 88.306h-14.115v-53.45h31.353V46.45h-17.238v10.2h15.89v11.59h-15.89v20.068zM510.5 89.038c-6.85 0-12.15-1.836-15.95-5.502-3.783-3.67-5.677-8.9-5.677-15.668 0-6.99 1.75-12.367 5.257-16.102 3.51-3.738 8.513-5.61 15.023-5.61 6.19 0 10.975 1.625 14.35 4.88 3.377 3.252 5.055 7.934 5.055 14.06v6.36H503.2c.1 2.313.944 4.125 2.526 5.44 1.583 1.322 3.736 1.972 6.476 1.972 2.488 0 4.785-.24 6.883-.708 2.078-.475 4.35-1.285 6.794-2.43V86c-2.216 1.15-4.533 1.94-6.89 2.38-2.376.44-5.202.658-8.49.658zm-.84-33.158c-1.66 0-3.062.533-4.187 1.592-1.128 1.056-1.784 2.72-1.97 4.986h12.186c-.055-1.996-.616-3.588-1.686-4.788-1.084-1.2-2.527-1.79-4.344-1.79zM563.876 75.58c0 4.436-1.497 7.79-4.5 10.053-3 2.266-7.305 3.404-12.916 3.404-3.045 0-5.7-.16-7.946-.496-2.252-.327-4.542-.935-6.89-1.803V75.293c2.205.977 4.615 1.783 7.243 2.412 2.618.63 4.962.943 7.016.943 3.08 0 4.61-.7 4.61-2.11 0-.733-.43-1.39-1.29-1.957-.852-.573-3.353-1.687-7.49-3.344-3.775-1.565-6.407-3.335-7.907-5.324-1.507-1.98-2.252-4.497-2.252-7.545 0-3.848 1.47-6.85 4.426-8.99 2.946-2.154 7.12-3.223 12.515-3.223 2.71 0 5.257.297 7.645.9 2.375.597 4.843 1.465 7.413 2.613l-3.848 9.213c-1.887-.848-3.883-1.582-5.99-2.177-2.103-.598-3.812-.888-5.148-.888-2.32 0-3.475.567-3.475 1.708 0 .707.403 1.316 1.206 1.804.813.506 3.154 1.524 7.03 3.058 2.87 1.2 5.02 2.37 6.44 3.516 1.41 1.146 2.453 2.492 3.12 4.037.66 1.55.988 3.422.988 5.643zM587.436 77.744c1.908 0 4.194-.48 6.852-1.432v10.426c-1.917.823-3.732 1.408-5.464 1.767-1.726.36-3.756.533-6.08.533-4.76 0-8.202-1.18-10.294-3.523-2.116-2.358-3.168-5.97-3.168-10.846V57.602h-4.962v-5.82l6.305-4.496 3.667-8.697h9.293v8.293h10.092v10.72h-10.092v16.12c0 2.674 1.282 4.02 3.85 4.02z"/></g><g><path d="M167.274 58.265h23.072v28.81c-6.267 2.143-13.157 3.22-20.66 3.22-8.24 0-14.61-2.39-19.104-7.17-4.497-4.775-6.746-11.59-6.746-20.436 0-8.636 2.46-15.345 7.385-20.15 4.93-4.8 11.826-7.206 20.698-7.206 3.367 0 6.54.32 9.528.953 2.977.633 5.585 1.44 7.81 2.41l-4.573 11.33c-3.848-1.892-8.086-2.842-12.686-2.842-4.218 0-7.478 1.37-9.782 4.115-2.31 2.734-3.46 6.653-3.46 11.755 0 4.996 1.044 8.803 3.13 11.42 2.08 2.625 5.084 3.933 9.012 3.933 2.15 0 4.125-.2 5.93-.622v-8.372h-9.55v-11.15h-.003zM242.134 61.7c0 8.926-2.46 15.798-7.372 20.626-4.912 4.825-11.812 7.24-20.714 7.24H196.75V36.105h18.504c8.582 0 15.208 2.194 19.877 6.585 4.666 4.387 7.004 10.72 7.004 19.01zm-14.99.516c0-4.904-.975-8.536-2.912-10.89-1.938-2.376-4.877-3.55-8.828-3.55h-4.21v29.94h3.218c4.39 0 7.604-1.27 9.655-3.82 2.05-2.543 3.076-6.442 3.076-11.68zM268.688 58.265h23.073v28.81c-6.267 2.143-13.147 3.22-20.66 3.22-8.243 0-14.61-2.39-19.107-7.17-4.49-4.775-6.747-11.59-6.747-20.436 0-8.636 2.465-15.345 7.393-20.15 4.923-4.8 11.82-7.206 20.7-7.206 3.35 0 6.533.32 9.52.953 2.983.633 5.587 1.44 7.81 2.41l-4.574 11.33c-3.85-1.892-8.083-2.842-12.692-2.842-4.214 0-7.47 1.37-9.774 4.115-2.304 2.734-3.456 6.653-3.456 11.755 0 4.996 1.04 8.803 3.123 11.42 2.082 2.625 5.09 3.933 9.016 3.933 2.143 0 4.118-.2 5.92-.622v-8.372h-9.547v-11.15h.002z"/></g></g><path d="M51.413 108.78L39.38 128.893 60.917 144.2 71.9 125.96 51.414 92.042c2.762 4.595 2.762 12.13 0 16.737z" fill="#168B58"/><path d="M71.902 125.957L60.917 144.2l22.646 16.096c2.252-4.65 2.17-11.422-.4-15.705l-11.26-18.633z" fill="#D7AB56"/><text font-family="Roboto" font-size="72" font-weight="686" fill="#4E4E4E"><tspan x="317" y="176">Yangon</tspan></text></g></svg>