<?xml version="1.0" encoding="UTF-8" standalone="no"?>
<svg width="1800px" height="502px" viewBox="0 0 1800 502" version="1.1" xmlns="http://www.w3.org/2000/svg" xmlns:xlink="http://www.w3.org/1999/xlink" xmlns:sketch="http://www.bohemiancoding.com/sketch/ns">
    <!-- Generator: Sketch 3.3.3 (12072) - http://www.bohemiancoding.com/sketch -->
    <title>gdg-logo + Yangon</title>
    <desc>Created with Sketch.</desc>
    <defs></defs>
    <g id="Page-1" stroke="none" stroke-width="1" fill="none" fill-rule="evenodd" sketch:type="MSPage">
        <g id="gdg-logo-+-Yangon" sketch:type="MSLayerGroup" fill="#757575">
            <g id="gdg-logo" sketch:type="MSShapeGroup">
                <g id="Group">
                    <path d="M264.2,317.1 L66.7,1 L12.2,1 C1.3,1 -2.9,8.6 2.8,17.8 L135.4,234.2 L136.1,235.3 L225.9,379.1 L264.2,317.1 L264.2,317.1 Z" id="Shape"></path>
                    <path d="M294.7,267.8 C300.4,258.6 300.4,243.5 294.7,234.2 L160.7,17.7 C155,8.5 141.4,0.9 130.6,0.9 L75.6,0.9 L268.6,309.8 L294.7,267.8 L294.7,267.8 Z" id="Shape"></path>
                    <path d="M71.9,501 L130.7,501 C141.5,501 155.1,493.5 160.8,484.2 L214.3,397.7 C214.5,397.4 214.9,396.7 215.8,395.3 L221.4,386.2 L182.5,324 L71.9,501 Z" id="Shape"></path>
                    <path d="M135.4,267.8 L2.8,484.3 C-2.9,493.6 1.4,501.1 12.2,501.1 L62.9,501.1 L178,316.9 L139.4,255 C138.9,259.8 137.6,264.3 135.4,267.8 L135.4,267.8 Z" id="Shape"></path>
                </g>
                <g id="Group" transform="translate(390.000000, 166.000000)">
                    <path d="M79,76.7 L156.1,76.7 L156.1,173 C135.2,180.2 112.1,183.8 87,183.8 C59.5,183.8 38.2,175.8 23.1,159.8 C8.1,143.8 0.5,121.1 0.5,91.5 C0.5,62.7 8.7,40.2 25.2,24.1 C41.7,8 64.7,-2.84217094e-14 94.4,-2.84217094e-14 C105.6,-2.84217094e-14 116.3,1.1 126.2,3.2 C136.2,5.3 144.9,8 152.3,11.3 L137,49.2 C124.1,42.8 110,39.7 94.6,39.7 C80.5,39.7 69.6,44.3 61.9,53.5 C54.2,62.7 50.3,75.8 50.3,92.8 C50.3,109.5 53.8,122.2 60.8,131 C67.8,139.8 77.8,144.1 90.9,144.1 C98.1,144.1 104.7,143.4 110.7,142 L110.7,114 L79,114 L79,76.7 L79,76.7 Z" id="Shape"></path>
                    <path d="M329.4,88.2 C329.4,118 321.2,141 304.8,157.1 C288.4,173.2 265.3,181.3 235.6,181.3 L177.8,181.3 L177.8,2.6 L239.6,2.6 C268.3,2.6 290.4,9.9 306,24.6 C321.6,39.3 329.4,60.5 329.4,88.2 L329.4,88.2 Z M279.3,89.9 C279.3,73.5 276.1,61.4 269.6,53.5 C263.1,45.6 253.3,41.6 240.1,41.6 L226,41.6 L226,141.7 L236.8,141.7 C251.5,141.7 262.2,137.4 269.1,128.9 C275.9,120.4 279.3,107.4 279.3,89.9 L279.3,89.9 Z" id="Shape"></path>
                    <path d="M418.5,76.7 L495.6,76.7 L495.6,173 C474.7,180.2 451.6,183.8 426.5,183.8 C399,183.8 377.7,175.8 362.6,159.8 C347.6,143.8 340,121.1 340,91.5 C340,62.7 348.2,40.2 364.7,24.1 C381.2,8 404.2,-2.84217094e-14 433.9,-2.84217094e-14 C445.1,-2.84217094e-14 455.8,1.1 465.7,3.2 C475.7,5.3 484.4,8 491.8,11.3 L476.5,49.2 C463.6,42.8 449.5,39.7 434.1,39.7 C420,39.7 409.1,44.3 401.4,53.5 C393.7,62.7 389.8,75.8 389.8,92.8 C389.8,109.5 393.3,122.2 400.3,131 C407.3,139.8 417.3,144.1 430.4,144.1 C437.6,144.1 444.2,143.4 450.2,142 L450.2,114 L418.3,114 L418.3,76.7 L418.5,76.7 L418.5,76.7 Z" id="Shape"></path>
                </g>
            </g>
            <text id="Yangon" sketch:type="MSTextLayer" font-family="Roboto" font-size="250" font-weight="420">
                <tspan x="962" y="345">Yangon</tspan>
            </text>
        </g>
    </g>
</svg>