<?xml version="1.0" encoding="UTF-8" standalone="no"?>
<svg width="613px" height="201px" viewBox="0 0 613 201" version="1.1" xmlns="http://www.w3.org/2000/svg" xmlns:xlink="http://www.w3.org/1999/xlink" xmlns:sketch="http://www.bohemiancoding.com/sketch/ns">
    <!-- Generator: Sketch 3.3.3 (12072) - http://www.bohemiancoding.com/sketch -->
    <title>logo-white + Yangon</title>
    <desc>Created with Sketch.</desc>
    <defs></defs>
    <g id="Page-1" stroke="none" stroke-width="1" fill="none" fill-rule="evenodd" sketch:type="MSPage">
        <g id="logo-white-+-Yangon" sketch:type="MSLayerGroup" fill="#FFFFFF">
            <g id="logo-white" sketch:type="MSShapeGroup">
                <g id="Group" transform="translate(161.000000, 35.000000)">
                    <g transform="translate(7.000000, 75.000000)" id="Shape">
                        <path d="M32.1,50.4 L0.1,50.4 L0.1,44.6 L12.3,32.3 C15.9,28.6 18.3,26 19.5,24.5 C20.7,23 21.5,21.5 22.1,20.2 C22.6,18.8 22.9,17.4 22.9,15.8 C22.9,13.7 22.3,12 21,10.8 C19.7,9.6 17.9,9 15.7,9 C13.9,9 12.1,9.3 10.4,10 C8.7,10.7 6.8,11.9 4.5,13.6 L0.4,8.6 C3,6.4 5.6,4.8 8.1,3.9 C10.6,3 13.2,2.5 16,2.5 C20.4,2.5 23.9,3.6 26.6,5.9 C29.3,8.2 30.6,11.3 30.6,15.2 C30.6,17.3 30.2,19.4 29.5,21.3 C28.7,23.2 27.6,25.2 26,27.2 C24.4,29.2 21.8,32 18.1,35.5 L9.9,43.5 L9.9,43.8 L32.3,43.8 L32.1,50.4 L32.1,50.4 Z"></path>
                        <path d="M69.9,26.8 C69.9,35 68.6,41.1 65.9,45.1 C63.2,49.1 59.2,51.1 53.8,51.1 C48.5,51.1 44.6,49 41.8,44.9 C39.1,40.8 37.7,34.7 37.7,26.8 C37.7,18.5 39,12.3 41.7,8.4 C44.3,4.4 48.4,2.5 53.8,2.5 C59.1,2.5 63.1,4.6 65.8,8.7 C68.5,12.8 69.9,18.8 69.9,26.8 L69.9,26.8 Z M45.5,26.8 C45.5,33.2 46.2,37.8 47.5,40.6 C48.8,43.4 50.9,44.7 53.9,44.7 C56.8,44.7 58.9,43.3 60.3,40.5 C61.6,37.7 62.3,33.1 62.3,26.8 C62.3,20.5 61.6,15.9 60.3,13 C59,10.2 56.8,8.7 53.9,8.7 C51,8.7 48.9,10.1 47.5,12.9 C46.1,15.8 45.5,20.3 45.5,26.8 L45.5,26.8 Z"></path>
                        <path d="M97.9,50.4 L90.3,50.4 L90.3,19.9 C90.3,16.3 90.4,13.4 90.6,11.2 C90.1,11.7 89.5,12.3 88.8,12.9 C88.1,13.5 85.7,15.5 81.5,18.8 L77.7,14 L91.6,3.1 L97.9,3.1 L97.9,50.4 L97.9,50.4 Z"></path>
                        <path d="M129.5,20.8 C134.3,20.8 138,22.1 140.8,24.6 C143.6,27.1 145,30.6 145,34.9 C145,39.9 143.4,43.9 140.3,46.7 C137.1,49.5 132.7,51 126.8,51 C121.5,51 117.4,50.1 114.3,48.4 L114.3,41.5 C116,42.5 118.1,43.3 120.3,43.8 C122.6,44.3 124.7,44.6 126.6,44.6 C130,44.6 132.6,43.8 134.4,42.3 C136.2,40.8 137.1,38.5 137.1,35.6 C137.1,30 133.5,27.1 126.3,27.1 C125.3,27.1 124,27.2 122.6,27.4 C121.1,27.6 119.8,27.8 118.7,28.1 L115.3,26.1 L117.1,3 L141.7,3 L141.7,9.8 L123.8,9.8 L122.7,21.5 C123.5,21.4 124.4,21.2 125.5,21 C126.6,20.9 127.9,20.8 129.5,20.8 L129.5,20.8 Z"></path>
                    </g>
                    <g transform="translate(180.000000, 0.000000)" id="Shape">
                        <path d="M45.2,25.7 C45.2,34.6 42.8,41.5 37.9,46.3 C33,51.1 26.2,53.5 17.3,53.5 L0.1,53.5 L0.1,0 L18.5,0 C27,0 33.6,2.2 38.2,6.6 C42.9,11.1 45.2,17.4 45.2,25.7 L45.2,25.7 Z M30.3,26.2 C30.3,21.3 29.3,17.7 27.4,15.3 C25.5,12.9 22.6,11.8 18.6,11.8 L14.4,11.8 L14.4,41.7 L17.6,41.7 C22,41.7 25.2,40.4 27.2,37.9 C29.3,35.3 30.3,31.4 30.3,26.2 L30.3,26.2 Z"></path>
                        <path d="M69.3,54.2 C62.4,54.2 57.1,52.4 53.3,48.7 C49.5,45 47.6,39.8 47.6,33 C47.6,26 49.4,20.6 52.9,16.9 C56.4,13.2 61.4,11.3 67.9,11.3 C74.1,11.3 78.9,12.9 82.3,16.2 C85.7,19.5 87.4,24.1 87.4,30.3 L87.4,36.7 L62,36.7 C62.1,39 62.9,40.8 64.5,42.1 C66.1,43.4 68.2,44.1 71,44.1 C73.5,44.1 75.8,43.9 77.9,43.4 C80,42.9 82.3,42.1 84.7,41 L84.7,51.3 C82.5,52.5 80.2,53.2 77.8,53.7 C75.4,54.1 72.6,54.2 69.3,54.2 L69.3,54.2 Z M68.5,21.2 C66.8,21.2 65.4,21.7 64.3,22.8 C63.2,23.9 62.5,25.5 62.3,27.8 L74.5,27.8 C74.4,25.8 73.9,24.2 72.8,23 C71.7,21.8 70.3,21.2 68.5,21.2 L68.5,21.2 Z"></path>
                        <path d="M101.7,53.6 L86,12.2 L100.8,12.2 L107.8,36.7 C107.8,36.8 107.9,37 108,37.3 C108.1,37.6 108.1,37.9 108.2,38.3 C108.3,38.7 108.3,39.1 108.4,39.6 C108.5,40.1 108.5,40.5 108.5,40.9 L108.7,40.9 C108.7,39.6 108.9,38.3 109.4,36.8 L116.7,12.2 L131.5,12.2 L115.8,53.6 L101.7,53.6 L101.7,53.6 Z"></path>
                        <path d="M146.8,53.6 L132.7,53.6 L132.7,0.2 L164.1,0.2 L164.1,11.8 L146.8,11.8 L146.8,22 L162.7,22 L162.7,33.6 L146.8,33.6 L146.8,53.6 L146.8,53.6 Z"></path>
                        <path d="M187.3,54.2 C180.5,54.2 175.2,52.4 171.3,48.7 C167.5,45 165.6,39.8 165.6,33 C165.6,26 167.4,20.6 170.9,16.9 C174.4,13.2 179.4,11.3 185.9,11.3 C192.1,11.3 196.9,12.9 200.3,16.2 C203.7,19.5 205.4,24.1 205.4,30.3 L205.4,36.7 L180,36.7 C180.1,39 180.9,40.8 182.5,42.1 C184.1,43.4 186.2,44.1 189,44.1 C191.5,44.1 193.8,43.9 195.9,43.4 C198,42.9 200.2,42.1 202.7,41 L202.7,51.3 C200.5,52.5 198.2,53.2 195.8,53.7 C193.4,54.1 190.6,54.2 187.3,54.2 L187.3,54.2 Z M186.5,21.2 C184.8,21.2 183.4,21.7 182.3,22.8 C181.2,23.9 180.5,25.5 180.3,27.8 L192.5,27.8 C192.4,25.8 191.9,24.2 190.8,23 C189.7,21.8 188.3,21.2 186.5,21.2 L186.5,21.2 Z"></path>
                        <path d="M240.7,40.8 C240.7,45.2 239.2,48.6 236.2,50.9 C233.2,53.2 228.9,54.3 223.3,54.3 C220.3,54.3 217.6,54.1 215.4,53.8 C213.1,53.5 210.9,52.9 208.5,52 L208.5,40.6 C210.7,41.6 213.1,42.4 215.7,43 C218.3,43.6 220.7,43.9 222.7,43.9 C225.8,43.9 227.3,43.2 227.3,41.8 C227.3,41.1 226.9,40.4 226,39.8 C225.1,39.2 222.6,38.1 218.5,36.5 C214.7,34.9 212.1,33.2 210.6,31.2 C209.1,29.2 208.3,26.7 208.3,23.7 C208.3,19.9 209.8,16.9 212.7,14.7 C215.6,12.5 219.8,11.5 225.2,11.5 C227.9,11.5 230.5,11.8 232.8,12.4 C235.2,13 237.6,13.9 240.2,15 L236.4,24.2 C234.5,23.4 232.5,22.6 230.4,22 C228.3,21.4 226.6,21.1 225.3,21.1 C223,21.1 221.8,21.7 221.8,22.8 C221.8,23.5 222.2,24.1 223,24.6 C223.8,25.1 226.2,26.1 230,27.7 C232.9,28.9 235,30.1 236.4,31.2 C237.8,32.3 238.9,33.7 239.5,35.2 C240.3,36.8 240.7,38.7 240.7,40.8 L240.7,40.8 Z"></path>
                        <path d="M264.2,42.9 C266.1,42.9 268.4,42.4 271.1,41.5 L271.1,51.9 C269.2,52.7 267.4,53.3 265.6,53.7 C263.9,54.1 261.8,54.2 259.5,54.2 C254.7,54.2 251.3,53 249.2,50.7 C247.1,48.3 246,44.7 246,39.9 L246,22.8 L241,22.8 L241,17 L247.3,12.5 L251,3.8 L260.3,3.8 L260.3,12.1 L270.4,12.1 L270.4,22.8 L260.3,22.8 L260.3,38.9 C260.4,41.7 261.7,42.9 264.2,42.9 L264.2,42.9 Z"></path>
                    </g>
                    <g id="Shape">
                        <path d="M24.1,23.6 L47.2,23.6 L47.2,52.4 C40.9,54.5 34,55.6 26.5,55.6 C18.3,55.6 11.9,53.2 7.4,48.4 C2.9,43.6 0.7,36.8 0.7,28 C0.7,19.4 3.2,12.7 8.1,7.9 C13,3.1 19.9,0.7 28.8,0.7 C32.2,0.7 35.3,1 38.3,1.7 C41.3,2.3 43.9,3.1 46.1,4.1 L41.5,15.4 C37.7,13.5 33.4,12.6 28.8,12.6 C24.6,12.6 21.3,14 19,16.7 C16.7,19.4 15.5,23.4 15.5,28.5 C15.5,33.5 16.5,37.3 18.6,39.9 C20.7,42.5 23.7,43.8 27.6,43.8 C29.7,43.8 31.7,43.6 33.5,43.2 L33.5,34.8 L24,34.8 L24.1,23.6 L24.1,23.6 Z"></path>
                        <path d="M98.9,26.9 C98.9,35.8 96.4,42.7 91.5,47.5 C86.6,52.3 79.7,54.7 70.8,54.7 L53.5,54.7 L53.5,1.2 L72,1.2 C80.6,1.2 87.2,3.4 91.9,7.8 C96.6,12.3 98.9,18.7 98.9,26.9 L98.9,26.9 Z M83.9,27.4 C83.9,22.5 82.9,18.9 81,16.5 C79.1,14.1 76.1,12.9 72.2,12.9 L68,12.9 L68,42.8 L71.2,42.8 C75.6,42.8 78.8,41.5 80.9,39 C82.9,36.7 83.9,32.8 83.9,27.4 L83.9,27.4 Z"></path>
                        <path d="M125.5,23.6 L148.6,23.6 L148.6,52.4 C142.3,54.5 135.5,55.6 127.9,55.6 C119.7,55.6 113.3,53.2 108.8,48.4 C104.3,43.6 102.1,36.8 102.1,28 C102.1,19.4 104.6,12.7 109.5,7.9 C114.4,3.1 121.3,0.7 130.2,0.7 C133.6,0.7 136.7,1 139.7,1.7 C142.7,2.3 145.3,3.1 147.5,4.1 L142.9,15.4 C139,13.5 134.8,12.6 130.2,12.6 C126,12.6 122.7,14 120.4,16.7 C118.1,19.4 116.9,23.4 116.9,28.5 C116.9,33.5 117.9,37.3 120,39.9 C122.1,42.5 125.1,43.8 129,43.8 C131.1,43.8 133.1,43.6 134.9,43.2 L134.9,34.8 L125.4,34.8 L125.5,23.6 L125.5,23.6 Z"></path>
                    </g>
                </g>
                <g id="Group">
                    <path d="M105.8,127.1 L26.8,0.7 L5,0.7 C0.6,0.7 -1,3.7 1.2,7.4 L54.2,93.9 L54.5,94.3 L90.4,151.8 L105.8,127.1 L105.8,127.1 Z" id="Shape"></path>
                    <path d="M118,107.4 C120.3,103.7 120.3,97.7 118,94 L64.4,7.4 C62.1,3.7 56.7,0.7 52.4,0.7 L30.4,0.7 L107.6,124.2 L118,107.4 L118,107.4 Z" id="Shape"></path>
                    <path d="M73.1,129.9 L28.9,200.7 L52.4,200.7 C56.7,200.7 62.2,197.7 64.4,194 L85.8,159.4 C85.9,159.3 86,159 86.4,158.4 L88.6,154.8 L73.1,129.9 L73.1,129.9 Z" id="Shape"></path>
                    <path d="M54.3,107.4 L1.3,193.9 C-1,197.6 0.7,200.6 5.1,200.6 L25.4,200.6 L71.4,127 L56,102.2 C55.7,104.1 55.1,105.9 54.3,107.4 L54.3,107.4 Z" id="Shape"></path>
                </g>
            </g>
            <text id="Yangon" sketch:type="MSTextLayer" font-family="Roboto" font-size="67" font-weight="bold">
                <tspan x="341" y="161">Yangon</tspan>
            </text>
        </g>
    </g>
</svg>