<?xml version="1.0" encoding="UTF-8" standalone="no"?>
<svg width="595px" height="201px" viewBox="0 0 595 201" version="1.1" xmlns="http://www.w3.org/2000/svg" xmlns:xlink="http://www.w3.org/1999/xlink" xmlns:sketch="http://www.bohemiancoding.com/sketch/ns">
    <!-- Generator: Sketch 3.3.3 (12072) - http://www.bohemiancoding.com/sketch -->
    <title>logo + Yangon</title>
    <desc>Created with Sketch.</desc>
    <defs></defs>
    <g id="Page-1" stroke="none" stroke-width="1" fill="none" fill-rule="evenodd" sketch:type="MSPage">
        <g id="logo-+-Yangon" sketch:type="MSLayerGroup">
            <g id="logo" sketch:type="MSShapeGroup">
                <g id="g3">
                    <g id="g5">
                        <path d="M27.073,200.405 L49.718,200.405 C55.07,200.405 61.724,196.646 64.489,192.029 L83.56,160.303 C85.815,155.652 85.733,148.876 83.163,144.591 L71.903,125.957 L27.073,200.405 L27.073,200.405 Z" id="path7" fill="#F6C25B"></path>
                        <path d="M51.413,108.779 L1.064,192.952 C-0.88,197.1 1.143,200.405 6.133,200.405 L27.073,200.405 L71.902,125.957 L51.414,92.041 C54.175,96.637 54.175,104.172 51.413,108.779" id="path9" fill="#0A985C"></path>
                        <path d="M6.134,0.405 C0.754,0.405 -1.368,4.184 1.387,8.771 L83.163,144.592 C85.733,148.877 85.809,155.653 83.56,160.297 L103.436,127.219 L27.087,0.406 L6.134,0.406 L6.134,0.405 Z" id="path11" fill="#5586C5"></path>
                        <path d="M27.087,0.405 L103.436,127.218 L114.509,108.786 C117.277,104.173 117.277,96.638 114.509,92.042 L64.492,8.771 C61.723,4.185 55.069,0.405 49.718,0.405 L27.087,0.405 L27.087,0.405 Z" id="path13" fill="#D9423E"></path>
                    </g>
                    <g id="g15" transform="translate(143.000000, 34.000000)" fill="#4E4E4E">
                        <g id="g19" transform="translate(2.280067, 94.571960)">
                            <g id="g3025" transform="translate(0.857315, 0.075610)">
                                <path d="M32.31571,48.1083 L0.26871,48.1083 L0.26871,42.3533 L12.45871,30.0963 C16.06071,26.4123 18.44571,23.7983 19.62171,22.2573 C20.79671,20.7163 21.65571,19.2633 22.19171,17.9073 C22.73171,16.5473 23.00171,15.0953 23.00171,13.5403 C23.00171,11.4083 22.35971,9.7263 21.07771,8.4963 C19.79171,7.2703 18.02171,6.6543 15.75571,6.6543 C13.94471,6.6543 12.19471,6.9893 10.50271,7.6553 C8.80871,8.3243 6.85371,9.5313 4.63171,11.2773 L0.52371,6.2643 C3.15471,4.0463 5.70771,2.4713 8.18871,1.5453 C10.66671,0.6193 13.30771,0.1543 16.11071,0.1543 C20.50871,0.1543 24.03671,1.3023 26.68871,3.5993 C29.34171,5.8923 30.66671,8.9813 30.66671,12.8633 C30.66671,14.9953 30.28071,17.0223 29.51871,18.9423 C28.75371,20.8593 27.57671,22.8383 25.99171,24.8743 C24.40971,26.9113 21.77171,29.6653 18.08671,33.1373 L9.87171,41.0923 L9.87171,41.4133 L32.31471,41.4133 L32.31471,48.1083 L32.31571,48.1083 Z" id="path21"></path>
                                <path d="M70.12071,24.4713 C70.12071,32.6833 68.80171,38.7863 66.15971,42.7743 C63.51771,46.7623 59.48171,48.7543 54.04771,48.7543 C48.78771,48.7543 44.79971,46.6973 42.08271,42.5793 C39.36571,38.4613 38.00871,32.4263 38.00871,24.4713 C38.00871,16.1263 39.32771,9.9793 41.96971,6.0223 C44.61171,2.0683 48.63771,0.0903 54.04771,0.0903 C59.33171,0.0903 63.32971,2.1613 66.04671,6.2993 C68.76371,10.4373 70.12071,16.4963 70.12071,24.4713 L70.12071,24.4713 Z M45.70571,24.4713 C45.70571,30.9163 46.36871,35.5193 47.69471,38.2763 C49.02071,41.0373 51.13971,42.4183 54.04771,42.4183 C56.95871,42.4183 59.08871,41.0173 60.43471,38.2113 C61.78171,35.4093 62.45471,30.8303 62.45471,24.4713 C62.45471,18.1323 61.78171,13.5463 60.43471,10.7103 C59.08771,7.8773 56.95871,6.4593 54.04771,6.4593 C51.13971,6.4593 49.02071,7.8503 47.69471,10.6313 C46.36871,13.4133 45.70571,18.0263 45.70571,24.4713 L45.70571,24.4713 Z" id="path23"></path>
                                <path d="M98.19271,48.1083 L90.59271,48.1083 L90.59271,17.5823 C90.59271,13.9393 90.67771,11.0523 90.85271,8.9163 C90.35671,9.4353 89.74571,10.0063 89.02471,10.6313 C88.30271,11.2563 85.88371,13.2383 81.76571,16.5803 L77.94871,11.7623 L91.85471,0.8343 L98.19371,0.8343 L98.19371,48.1083 L98.19271,48.1083 Z" id="path25"></path>
                                <path d="M129.72371,18.5873 C134.48871,18.5873 138.26071,19.8483 141.04371,22.3703 C143.82471,24.8923 145.21671,28.3303 145.21671,32.6833 C145.21671,37.7273 143.63771,41.6673 140.47671,44.5033 C137.31971,47.3403 132.83171,48.7543 127.00871,48.7543 C121.72871,48.7543 117.57671,47.9033 114.55871,46.2023 L114.55871,39.3133 C116.30471,40.3033 118.31071,41.0693 120.57271,41.6093 C122.83871,42.1493 124.94071,42.4193 126.87871,42.4193 C130.30671,42.4193 132.91671,41.6543 134.70471,40.1233 C136.49571,38.5923 137.39071,36.3503 137.39071,33.3943 C137.39071,27.7493 133.78871,24.9233 126.58771,24.9233 C125.57671,24.9233 124.32571,25.0263 122.83871,25.2313 C121.34871,25.4363 120.04671,25.6683 118.92571,25.9283 L115.52871,23.9223 L117.33971,0.8353 L141.91971,0.8353 L141.91971,7.5913 L124.03571,7.5913 L122.96671,19.2983 C123.72171,19.1683 124.64471,19.0183 125.73171,18.8443 C126.81871,18.6723 128.15171,18.5873 129.72371,18.5873 L129.72371,18.5873 Z" id="path27"></path>
                            </g>
                        </g>
                        <g id="g43" transform="translate(180.000000, 0.000000)">
                            <g id="g45">
                                <path d="M45.434,26.446 C45.434,35.368 42.991,42.247 38.12,47.066 C33.246,51.884 26.391,54.307 17.563,54.307 L0.393,54.307 L0.393,0.858 L18.76,0.858 C27.273,0.858 33.848,3.055 38.479,7.443 C43.114,11.819 45.434,18.162 45.434,26.446 L45.434,26.446 Z M30.55,26.961 C30.55,22.064 29.59,18.432 27.666,16.063 C25.752,13.705 22.827,12.52 18.903,12.52 L14.73,12.52 L14.73,42.455 L17.929,42.455 C22.279,42.455 25.482,41.18 27.515,38.641 C29.532,36.089 30.55,32.2 30.55,26.961 L30.55,26.961 Z" id="path47"></path>
                            </g>
                            <g id="g49" transform="translate(47.000000, 12.000000)">
                                <path d="M22.501,43.038 C15.645,43.038 10.331,41.202 6.544,37.536 C2.761,33.866 0.864,28.637 0.864,21.868 C0.864,14.877 2.614,9.501 6.121,5.766 C9.631,2.028 14.641,0.155 21.144,0.155 C27.334,0.155 32.118,1.781 35.498,5.035 C38.875,8.288 40.556,12.97 40.556,19.097 L40.556,25.456 L15.201,25.456 C15.293,27.769 16.137,29.581 17.716,30.896 C19.305,32.218 21.461,32.868 24.195,32.868 C26.687,32.868 28.98,32.629 31.074,32.16 C33.159,31.685 35.436,30.875 37.872,29.73 L37.872,39.999 C35.654,41.151 33.354,41.94 30.982,42.381 C28.608,42.819 25.778,43.038 22.501,43.038 L22.501,43.038 Z M21.656,9.88 C19.989,9.88 18.597,10.413 17.47,11.472 C16.336,12.528 15.686,14.192 15.488,16.458 L27.685,16.458 C27.634,14.462 27.074,12.87 25.996,11.67 C24.917,10.471 23.468,9.88 21.656,9.88 L21.656,9.88 Z" id="path51"></path>
                            </g>
                            <g id="g53" transform="translate(86.000000, 12.000000)">
                                <path d="M15.893,42.306 L0.22,0.882 L15.025,0.882 L21.99,25.377 C22.01,25.503 22.062,25.705 22.14,26.002 C22.209,26.293 22.283,26.641 22.352,27.038 C22.43,27.444 22.495,27.872 22.55,28.326 C22.615,28.777 22.646,29.194 22.646,29.58 L22.892,29.58 C22.892,28.322 23.114,26.942 23.548,25.455 L30.841,0.882 L45.606,0.882 L29.926,42.306 L15.893,42.306 L15.893,42.306 Z" id="path55"></path>
                            </g>
                            <g id="g57" transform="translate(132.000000, 0.000000)">
                                <path d="M15.002,54.306 L0.887,54.306 L0.887,0.857 L32.24,0.857 L32.24,12.448 L15.002,12.448 L15.002,22.649 L30.893,22.649 L30.893,34.237 L15.002,34.237 L15.002,54.306 L15.002,54.306 Z" id="path59"></path>
                            </g>
                            <g id="g61" transform="translate(165.000000, 12.000000)">
                                <path d="M22.5,43.038 C15.651,43.038 10.351,41.202 6.55,37.536 C2.767,33.866 0.873,28.637 0.873,21.868 C0.873,14.877 2.624,9.501 6.13,5.766 C9.64,2.028 14.643,0.155 21.153,0.155 C27.343,0.155 32.128,1.781 35.504,5.035 C38.88,8.288 40.558,12.97 40.558,19.097 L40.558,25.456 L15.2,25.456 C15.3,27.769 16.144,29.581 17.726,30.896 C19.309,32.218 21.462,32.868 24.202,32.868 C26.69,32.868 28.987,32.629 31.085,32.16 C33.163,31.685 35.435,30.875 37.879,29.73 L37.879,39.999 C35.664,41.151 33.347,41.94 30.989,42.381 C28.614,42.819 25.788,43.038 22.5,43.038 L22.5,43.038 Z M21.66,9.88 C19.999,9.88 18.598,10.413 17.473,11.472 C16.345,12.528 15.689,14.192 15.502,16.458 L27.689,16.458 C27.635,14.462 27.074,12.87 26.004,11.67 C24.92,10.471 23.477,9.88 21.66,9.88 L21.66,9.88 Z" id="path63"></path>
                            </g>
                            <g id="g65" transform="translate(208.000000, 12.000000)">
                                <path d="M32.876,29.58 C32.876,34.016 31.379,37.371 28.375,39.633 C25.375,41.899 21.071,43.037 15.46,43.037 C12.415,43.037 9.759,42.876 7.514,42.541 C5.262,42.213 2.972,41.605 0.625,40.737 L0.625,29.293 C2.829,30.27 5.239,31.076 7.867,31.705 C10.485,32.334 12.829,32.648 14.883,32.648 C17.962,32.648 19.494,31.948 19.494,30.539 C19.494,29.805 19.063,29.148 18.202,28.581 C17.351,28.007 14.85,26.893 10.714,25.236 C6.938,23.671 4.306,21.901 2.806,19.912 C1.299,17.933 0.554,15.415 0.554,12.367 C0.554,8.519 2.023,5.518 4.98,3.376 C7.926,1.223 12.099,0.154 17.495,0.154 C20.205,0.154 22.752,0.451 25.14,1.053 C27.515,1.651 29.983,2.519 32.553,3.667 L28.705,12.88 C26.818,12.032 24.822,11.298 22.714,10.703 C20.612,10.105 18.903,9.815 17.567,9.815 C15.247,9.815 14.092,10.382 14.092,11.523 C14.092,12.23 14.495,12.839 15.298,13.327 C16.111,13.833 18.452,14.851 22.328,16.385 C25.199,17.584 27.348,18.756 28.767,19.901 C30.178,21.046 31.221,22.392 31.888,23.937 C32.548,25.487 32.876,27.359 32.876,29.58 L32.876,29.58 Z" id="path67"></path>
                            </g>
                            <g id="g69" transform="translate(241.000000, 4.000000)">
                                <path d="M23.436,39.744 C25.344,39.744 27.63,39.265 30.288,38.312 L30.288,48.738 C28.371,49.561 26.556,50.146 24.824,50.505 C23.098,50.864 21.068,51.038 18.744,51.038 C13.983,51.038 10.542,49.859 8.45,47.515 C6.334,45.157 5.282,41.545 5.282,36.669 L5.282,19.603 L0.32,19.603 L0.32,13.784 L6.625,9.287 L10.292,0.59 L19.585,0.59 L19.585,8.883 L29.677,8.883 L29.677,19.603 L19.585,19.603 L19.585,35.722 C19.585,38.397 20.867,39.744 23.436,39.744 L23.436,39.744 Z" id="path71"></path>
                            </g>
                        </g>
                        <g id="g73" transform="translate(0.000000, 1.000000)">
                            <g id="g75">
                                <path d="M24.274,23.265 L47.346,23.265 L47.346,52.075 C41.079,54.218 34.189,55.294 26.687,55.294 C18.447,55.294 12.076,52.905 7.582,48.124 C3.085,43.35 0.836,36.536 0.836,27.689 C0.836,19.054 3.297,12.345 8.221,7.541 C13.149,2.74 20.046,0.334 28.918,0.334 C32.285,0.334 35.457,0.655 38.446,1.287 C41.423,1.92 44.031,2.726 46.256,3.696 L41.683,15.028 C37.835,13.135 33.597,12.185 28.997,12.185 C24.779,12.185 21.519,13.555 19.215,16.3 C16.905,19.034 15.754,22.953 15.754,28.055 C15.754,33.051 16.799,36.858 18.884,39.475 C20.966,42.1 23.969,43.408 27.897,43.408 C30.047,43.408 32.022,43.207 33.826,42.786 L33.826,34.414 L24.278,34.414 L24.278,23.263 L24.274,23.263 L24.274,23.265 Z" id="path77"></path>
                            </g>
                            <g id="g79" transform="translate(53.000000, 1.000000)">
                                <path d="M46.134,25.7 C46.134,34.626 43.673,41.498 38.762,46.326 C33.85,51.151 26.95,53.567 18.048,53.567 L0.751,53.567 L0.751,0.104 L19.254,0.104 C27.836,0.104 34.462,2.298 39.131,6.689 C43.796,11.077 46.134,17.409 46.134,25.7 L46.134,25.7 Z M31.143,26.216 C31.143,21.312 30.169,17.68 28.232,15.325 C26.294,12.95 23.355,11.775 19.404,11.775 L15.193,11.775 L15.193,41.717 L18.412,41.717 C22.801,41.717 26.016,40.446 28.067,37.897 C30.118,35.353 31.143,31.454 31.143,26.216 L31.143,26.216 Z" id="path81"></path>
                            </g>
                            <g id="g83" transform="translate(102.000000, 0.000000)">
                                <path d="M23.688,23.265 L46.761,23.265 L46.761,52.075 C40.493,54.218 33.613,55.294 26.101,55.294 C17.857,55.294 11.49,52.905 6.993,48.124 C2.503,43.35 0.246,36.536 0.246,27.689 C0.246,19.054 2.711,12.345 7.639,7.541 C12.563,2.74 19.46,0.334 28.339,0.334 C31.691,0.334 34.873,0.655 37.86,1.287 C40.843,1.92 43.447,2.726 45.669,3.696 L41.096,15.028 C37.245,13.135 33.013,12.185 28.404,12.185 C24.19,12.185 20.933,13.555 18.63,16.3 C16.326,19.034 15.174,22.953 15.174,28.055 C15.174,33.051 16.213,36.858 18.297,39.475 C20.379,42.1 23.386,43.408 27.313,43.408 C29.456,43.408 31.431,43.207 33.232,42.786 L33.232,34.414 L23.686,34.414 L23.686,23.265 L23.688,23.265 Z" id="path85"></path>
                            </g>
                        </g>
                    </g>
                </g>
                <path d="M51.413,108.779 L39.381,128.894 L60.916,144.201 L71.901,125.958 L51.413,92.042 C54.175,96.637 54.175,104.172 51.413,108.779 L51.413,108.779 Z" id="path87" fill="#168B58"></path>
                <path d="M71.902,125.957 L60.917,144.2 L83.563,160.296 C85.815,155.645 85.732,148.874 83.163,144.591 L71.902,125.957 L71.902,125.957 Z" id="path89" fill="#D7AB56"></path>
            </g>
            <text id="Yangon" sketch:type="MSTextLayer" font-family="Roboto" font-size="72" font-weight="686" fill="#4E4E4E">
                <tspan x="317" y="176">Yangon</tspan>
            </text>
        </g>
    </g>
</svg>